<svg xmlns="http://www.w3.org/2000/svg" viewBox="0 0 120 120" width="120" height="120" fill="none">
  <defs>
    <linearGradient id="favZariGrad" x1="15%" y1="10%" x2="90%" y2="90%">
      <stop offset="0%" stop-color="#DFBF76" />
      <stop offset="35%" stop-color="#C5A059" />
      <stop offset="70%" stop-color="#AD8740" />
      <stop offset="100%" stop-color="#8E6A29" />
    </linearGradient>
  </defs>

  <!-- Luxury Obsidian Base -->
  <rect width="120" height="120" rx="26" fill="#141412" />
  <rect x="5" y="5" width="110" height="110" rx="22" stroke="url(#favZariGrad)" stroke-width="1.5" stroke-opacity="0.45" fill="none" />

  <!-- Loom Corner Accents -->
  <line x1="5" y1="18" x2="5" y2="5" stroke="url(#favZariGrad)" stroke-width="2.5" />
  <line x1="5" y1="5" x2="18" y2="5" stroke="url(#favZariGrad)" stroke-width="2.5" />
  <line x1="115" y1="18" x2="115" y2="5" stroke="url(#favZariGrad)" stroke-width="2.5" />
  <line x1="115" y1="5" x2="102" y2="5" stroke="url(#favZariGrad)" stroke-width="2.5" />
  <line x1="5" y1="102" x2="5" y2="115" stroke="url(#favZariGrad)" stroke-width="2.5" />
  <line x1="5" y1="115" x2="18" y2="115" stroke="url(#favZariGrad)" stroke-width="2.5" />
  <line x1="115" y1="102" x2="115" y2="115" stroke="url(#favZariGrad)" stroke-width="2.5" />
  <line x1="115" y1="115" x2="102" y2="115" stroke="url(#favZariGrad)" stroke-width="2.5" />

  <!-- Bold Roman 'R' in Alabaster Silk -->
  <path d="M 22 22 H 42 V 28 H 36 V 92 H 44 V 98 H 20 V 92 H 28 V 28 H 22 Z" fill="#F9F8F6" />
  <path d="M 36 24 H 62 C 78 24 88 32 88 44 C 88 56 78 64 62 64 H 36 V 56 H 60 C 71 56 77 52 77 44 C 77 36 71 32 60 32 H 36 Z" fill="#F9F8F6" />
  <path d="M 48 59 C 55 59 62 65 67 73 L 83 92 C 87 97 91 98 98 98 V 92 C 94 92 91 90 87 85 L 72 67 C 67 60 59 55 48 55 Z" fill="#F9F8F6" />

  <!-- Intertwined Antique Zari 'S' Ribbon -->
  <path d="M 88 28 C 84 19 72 16 58 19 C 47 21 44 28 47 34 C 49 38 54 41 62 44 L 72 48 C 84 53 91 61 90 73 C 89 85 78 94 62 96 C 48 98 39 91 38 84 H 45 C 46 88 52 91 62 90 C 72 89 80 84 81 74 C 82 65 76 60 66 56 L 56 52 C 45 47 40 40 41 31 C 42 20 53 14 66 14 C 79 14 91 19 93 28 Z" fill="url(#favZariGrad)" />

  <!-- Centerpiece Gold Hallmark Diamond -->
  <polygon points="60,54 64,59 60,64 56,59" fill="url(#favZariGrad)" />
  <circle cx="60" cy="59" r="1.2" fill="#141412" />
</svg>
